<svg width="100" height="100" viewBox="0 0 100 100" fill="none" xmlns="http://www.w3.org/2000/svg">
<rect width="100" height="100" rx="18" fill="#090808"/>
<rect width="100" height="100" rx="18" fill="black" fill-opacity="0.2"/>
<path d="M27.15 68V33H43.05C46.85 33 50.2 33.7333 53.1 35.2C56 36.6333 58.2667 38.65 59.9 41.25C61.5333 43.85 62.35 46.9333 62.35 50.5C62.35 54.0333 61.5333 57.1167 59.9 59.75C58.2667 62.35 56 64.3833 53.1 65.85C50.2 67.2833 46.85 68 43.05 68H27.15ZM35.25 61.35H42.65C44.9833 61.35 47 60.9167 48.7 60.05C50.4333 59.15 51.7667 57.8833 52.7 56.25C53.6667 54.6167 54.15 52.7 54.15 50.5C54.15 48.2667 53.6667 46.35 52.7 44.75C51.7667 43.1167 50.4333 41.8667 48.7 41C47 40.1 44.9833 39.65 42.65 39.65H35.25V61.35Z" fill="white"/>
<path d="M71.55 68.4C70.2167 68.4 69.0667 67.95 68.1 67.05C67.1667 66.1167 66.7 64.9333 66.7 63.5C66.7 62.0667 67.1667 60.9167 68.1 60.05C69.0667 59.15 70.2167 58.7 71.55 58.7C72.9167 58.7 74.0667 59.15 75 60.05C75.9333 60.9167 76.4 62.0667 76.4 63.5C76.4 64.9333 75.9333 66.1167 75 67.05C74.0667 67.95 72.9167 68.4 71.55 68.4Z" fill="white"/>
</svg>
